<?xml version="1.0" encoding="UTF-8"?>
<svg id="Layer_2" data-name="Layer 2" xmlns="http://www.w3.org/2000/svg" viewBox="0 0 612.66 103.67">
  <defs>
    <style>
      .cls-1 {
        fill: #353535;
      }

      .cls-1, .cls-2 {
        stroke-width: 0px;
      }

      .cls-2 {
        fill: #39b54a;
      }
    </style>
  </defs>
  <g id="Layer_1-2" data-name="Layer 1">
    <g>
      <path class="cls-1" d="M48.98,54.28c3.31,1.39,5.88,3.34,7.71,5.84,1.83,2.5,2.74,5.39,2.74,8.67v.27c0,5.44-1.79,9.62-5.38,12.52-3.59,2.9-8.67,4.35-15.24,4.35H14.44v16.19H0v-49.93h37.56c4.3,0,8.11.7,11.42,2.09ZM41.2,75.3c1.37-.2,2.52-.76,3.47-1.69.95-.92,1.42-2.42,1.42-4.49s-.47-3.65-1.42-4.62c-.95-.97-2.13-1.56-3.54-1.79-1.41-.22-3.34-.34-5.8-.34h-2.57c-1.07,0-2.91.01-5.52.03-2.62.02-6.91.03-12.88.03v13.16h20.97c2.54,0,4.5-.1,5.87-.3Z"/>
      <path class="cls-1" d="M110.73,102.05l-14.23-16.13h-14.51v16.13h-13.88v-49.93h37.56c4.3,0,8.11.7,11.42,2.09,3.31,1.39,5.88,3.34,7.71,5.84,1.83,2.5,2.74,5.39,2.74,8.67v.27c0,4.27-1.28,7.81-3.85,10.59-2.57,2.79-6.12,4.66-10.66,5.6l14.93,16.87h-17.22ZM112.26,64.4c-.88-.99-2.01-1.6-3.4-1.82-1.39-.22-3.36-.34-5.9-.34-1.11,0-2.06.02-2.85.07-3.8.09-9.84.13-18.12.13v13.16h20.97c2.54,0,4.51-.1,5.9-.3s2.52-.78,3.4-1.72c.88-.94,1.32-2.43,1.32-4.45,0-2.16-.44-3.73-1.32-4.72Z"/>
      <path class="cls-1" d="M184.53,54.52c4.95,2.27,8.84,5.4,11.66,9.38,2.82,3.98,4.23,8.47,4.23,13.46s-1.41,9.4-4.23,13.36c-2.82,3.96-6.71,7.07-11.66,9.35-4.95,2.27-10.53,3.41-16.73,3.41s-11.47-1.14-16.49-3.41c-5.02-2.27-9.01-5.4-11.98-9.38-2.96-3.98-4.44-8.42-4.44-13.33s1.47-9.42,4.41-13.43c2.94-4,6.93-7.14,11.98-9.41,5.04-2.27,10.55-3.41,16.52-3.41s11.78,1.14,16.73,3.41ZM176.34,90.68c2.68-1.19,4.86-2.92,6.53-5.2,1.67-2.27,2.5-4.98,2.5-8.13s-.83-5.81-2.5-8.13c-1.67-2.32-3.84-4.08-6.53-5.3-2.68-1.21-5.53-1.82-8.54-1.82s-6,.6-8.71,1.79c-2.71,1.19-4.87,2.94-6.49,5.23-1.62,2.29-2.43,4.99-2.43,8.1s.82,5.88,2.46,8.2c1.64,2.32,3.82,4.07,6.53,5.26,2.71,1.19,5.59,1.79,8.64,1.79s5.85-.6,8.54-1.79Z"/>
      <polygon class="cls-2" points="281.6 0 235.62 88.15 216.6 52.19 200.63 52.19 227.36 102.12 243.68 102.12 296.53 0 281.6 0"/>
      <path class="cls-1" d="M325.32,81.74h-33.6v9.99l39.43-.27v10.66h-53.8v-49.93h53.8l.07,10.59h-39.5v8.5h33.6v10.46Z"/>
      <path class="cls-1" d="M388.98,85.19v-33h14.44v49.93h-14.44l-34.36-33.06v33.06h-14.37v-49.93h14.37l34.36,33ZM354.62,102.12h-14.37v-49.93l14.37,49.93Z"/>
      <path class="cls-1" d="M471.87,52.19v11.61h-22.35v38.33h-14.44v-38.33h-22.63v-11.61h59.43ZM412.45,63.73v-11.54h59.43l-59.43,11.54Z"/>
      <path class="cls-1" d="M527.69,52.19h14.72v25.98c0,4.86-1.34,9.22-4.03,13.09-2.68,3.87-6.32,6.88-10.9,9.04s-9.67,3.24-15.27,3.24-11.08-1.08-15.9-3.24-8.63-5.16-11.46-9.01c-2.82-3.85-4.26-8.2-4.3-13.06v-26.05h14.93v26.25c0,3.24.89,5.86,2.67,7.86,1.78,2,3.95,3.43,6.49,4.28,2.54.86,5.09,1.28,7.64,1.28,2.27,0,4.58-.43,6.94-1.28,2.36-.85,4.36-2.28,6-4.28,1.64-2,2.46-4.62,2.46-7.86v-26.25Z"/>
      <path class="cls-1" d="M587.53,72.77c4.86,0,9.07.29,12.63.88,3.56.58,6.54,1.84,8.92,3.78,2.38,1.94,3.58,4.79,3.58,8.57,0,6.93-3.12,11.61-9.37,14.04-6.25,2.43-13.26,3.64-21.04,3.64s-14.79-1.25-21.45-3.75c-6.66-2.5-10-7.25-10-14.27l14.93-.13c0,2.47.98,4.32,2.95,5.53,1.97,1.21,4.12,1.97,6.46,2.26,2.34.29,4.87.44,7.6.44,4.17,0,7.75-.58,10.76-1.75,3.01-1.17,4.54-3.06,4.58-5.67v-.07c0-1.93-1.49-3.18-4.48-3.75-2.98-.56-6.58-.84-10.79-.84h-4.3c-5.55,0-10.25-.28-14.09-.84-3.84-.56-7.07-1.87-9.68-3.91-2.62-2.05-3.92-5.14-3.92-9.28,0-11.29,10.48-16.94,31.45-16.94,7.45,0,14.38,1.24,20.79,3.71,6.41,2.47,9.62,7.24,9.62,14.31h-14.79c0-2.52-1.5-4.43-4.51-5.74-3.01-1.3-6.67-2.05-10.97-2.23-4.67,0-8.64.54-11.91,1.62-3.26,1.08-4.89,2.77-4.89,5.06,0,3.6,5.37,5.4,16.11,5.4l5.83-.07Z"/>
    </g>
  </g>
</svg>